<mxfile host="65bd71144e">
    <diagram id="m3rHky_5dQ3IpLsup29d" name="Page-1">
        <mxGraphModel dx="2003" dy="782" grid="1" gridSize="10" guides="1" tooltips="1" connect="1" arrows="1" fold="1" page="1" pageScale="1" pageWidth="850" pageHeight="1100" background="#ffffff" math="0" shadow="0">
            <root>
                <mxCell id="0"/>
                <mxCell id="1" parent="0"/>
                <mxCell id="5" style="edgeStyle=none;html=1;strokeColor=#000000;exitX=0.507;exitY=1;exitDx=0;exitDy=0;exitPerimeter=0;" parent="1" source="2" edge="1">
                    <mxGeometry relative="1" as="geometry">
                        <mxPoint x="400" y="380" as="targetPoint"/>
                    </mxGeometry>
                </mxCell>
                <mxCell id="2" value="&lt;font style=&quot;font-size: 14px&quot;&gt;Vous êtes un boss de mafia nommé : &lt;br&gt;Stalionio. Vous faites partie&lt;br&gt;&amp;nbsp;d'une organisation du nom&lt;br&gt;&amp;nbsp;de Torrac. La nuit précédente,&lt;br&gt;&amp;nbsp;un des cinq autres membres a été&lt;br&gt;&amp;nbsp;assassiné dans une location &lt;br&gt;seulement connu par votre équipe. &lt;br&gt;Il est évident que l'un des membres&lt;br&gt;&amp;nbsp;de l'équipe est un imposteur et c'est&lt;br&gt;&amp;nbsp;à vous de le trouver durant la rencontre&lt;br&gt;&amp;nbsp;à la table ronde.&lt;/font&gt;" style="rounded=1;whiteSpace=wrap;html=1;fillColor=#6a00ff;fontColor=#ffffff;strokeColor=#3700CC;" parent="1" vertex="1">
                    <mxGeometry x="250" y="90" width="295" height="220" as="geometry"/>
                </mxCell>
                <mxCell id="50" style="edgeStyle=none;html=1;entryX=0.5;entryY=0;entryDx=0;entryDy=0;strokeColor=#000000;" parent="1" source="6" target="49" edge="1">
                    <mxGeometry relative="1" as="geometry"/>
                </mxCell>
                <mxCell id="6" value="&lt;font style=&quot;font-size: 14px&quot;&gt;C'est la personne&lt;br&gt;&amp;nbsp;en qui vous avez &lt;br&gt;le plus confiance. &lt;br&gt;Par contre, &lt;br&gt;il était la dernière personne à visiter votre compagnon mort.&lt;/font&gt;" style="rounded=1;whiteSpace=wrap;html=1;fillColor=#6a00ff;fontColor=#ffffff;strokeColor=#3700CC;" parent="1" vertex="1">
                    <mxGeometry x="320" y="600" width="160" height="140" as="geometry"/>
                </mxCell>
                <mxCell id="13" style="edgeStyle=none;html=1;entryX=1;entryY=0.5;entryDx=0;entryDy=0;" parent="1" edge="1">
                    <mxGeometry relative="1" as="geometry">
                        <mxPoint x="120" y="570" as="targetPoint"/>
                        <mxPoint x="120" y="570" as="sourcePoint"/>
                    </mxGeometry>
                </mxCell>
                <mxCell id="80" style="edgeStyle=none;html=1;entryX=0.483;entryY=1.013;entryDx=0;entryDy=0;entryPerimeter=0;fontColor=#F0F0F0;startArrow=none;strokeColor=#000000;exitX=-0.017;exitY=0.467;exitDx=0;exitDy=0;exitPerimeter=0;" parent="1" source="82" target="79" edge="1">
                    <mxGeometry relative="1" as="geometry">
                        <Array as="points">
                            <mxPoint x="-153" y="560"/>
                        </Array>
                    </mxGeometry>
                </mxCell>
                <mxCell id="59" style="edgeStyle=none;html=1;fontColor=#E6E6E6;strokeColor=#000000;" parent="1" source="8" target="57" edge="1">
                    <mxGeometry relative="1" as="geometry"/>
                </mxCell>
                <mxCell id="8" value="&lt;span&gt;&lt;font style=&quot;font-size: 14px&quot;&gt;Vous êtes neutre envers lui, mais vous trouvez l'arme qui a tué votre camarade dans sa chambre&lt;/font&gt;&lt;/span&gt;" style="rounded=1;whiteSpace=wrap;html=1;fillColor=#6a00ff;fontColor=#ffffff;strokeColor=#3700CC;" parent="1" vertex="1">
                    <mxGeometry x="530" y="485" width="120" height="135" as="geometry"/>
                </mxCell>
                <mxCell id="10" value="" style="endArrow=classic;html=1;exitX=1;exitY=0.5;exitDx=0;exitDy=0;entryX=0.5;entryY=0;entryDx=0;entryDy=0;startArrow=none;strokeColor=#000000;" parent="1" source="47" target="8" edge="1">
                    <mxGeometry width="50" height="50" relative="1" as="geometry">
                        <mxPoint x="480" y="420" as="sourcePoint"/>
                        <mxPoint x="520" y="680" as="targetPoint"/>
                        <Array as="points">
                            <mxPoint x="590" y="420"/>
                        </Array>
                    </mxGeometry>
                </mxCell>
                <mxCell id="11" value="" style="endArrow=classic;html=1;exitX=0.5;exitY=1;exitDx=0;exitDy=0;entryX=0.5;entryY=0;entryDx=0;entryDy=0;startArrow=none;strokeColor=#000000;" parent="1" source="45" target="6" edge="1">
                    <mxGeometry width="50" height="50" relative="1" as="geometry">
                        <mxPoint x="400" y="460" as="sourcePoint"/>
                        <mxPoint x="520" y="680" as="targetPoint"/>
                    </mxGeometry>
                </mxCell>
                <mxCell id="14" value="" style="endArrow=classic;html=1;fontSize=12;entryX=0.5;entryY=0;entryDx=0;entryDy=0;strokeColor=#000000;" parent="1" target="15" edge="1">
                    <mxGeometry width="50" height="50" relative="1" as="geometry">
                        <mxPoint x="160" y="720" as="sourcePoint"/>
                        <mxPoint x="160" y="780" as="targetPoint"/>
                    </mxGeometry>
                </mxCell>
                <mxCell id="40" style="edgeStyle=none;html=1;entryX=0;entryY=0.5;entryDx=0;entryDy=0;strokeColor=#000000;" parent="1" source="15" target="2" edge="1">
                    <mxGeometry relative="1" as="geometry">
                        <Array as="points">
                            <mxPoint x="30" y="840"/>
                            <mxPoint x="-240" y="840"/>
                            <mxPoint x="-240" y="200"/>
                        </Array>
                    </mxGeometry>
                </mxCell>
                <mxCell id="15" value="&lt;font style=&quot;font-size: 14px&quot;&gt;Les membres de l'équipe &lt;br&gt;vous tuent, car ils trouvaient&lt;br&gt;&amp;nbsp;l'accusation trop bizarre. &lt;br&gt;(Vous recevez un papier avec le code de la caméra de sécurité)&lt;/font&gt;" style="rounded=1;whiteSpace=wrap;html=1;labelBackgroundColor=none;fontSize=12;fillColor=#a20025;fontColor=#ffffff;strokeColor=#6F0000;" parent="1" vertex="1">
                    <mxGeometry x="60" y="760" width="200" height="160" as="geometry"/>
                </mxCell>
                <mxCell id="16" value="" style="endArrow=none;html=1;fontSize=12;exitX=0.5;exitY=1;exitDx=0;exitDy=0;entryX=0.5;entryY=0;entryDx=0;entryDy=0;strokeColor=#000000;" parent="1" source="85" target="17" edge="1">
                    <mxGeometry width="50" height="50" relative="1" as="geometry">
                        <mxPoint x="40.00000000000023" y="625" as="sourcePoint"/>
                        <mxPoint x="40" y="670" as="targetPoint"/>
                    </mxGeometry>
                </mxCell>
                <mxCell id="17" value="&lt;font style=&quot;font-size: 14px&quot; color=&quot;#000000&quot;&gt;L'accuser&lt;/font&gt;" style="text;html=1;strokeColor=none;fillColor=none;align=center;verticalAlign=middle;whiteSpace=wrap;rounded=0;labelBackgroundColor=none;fontSize=12;" parent="1" vertex="1">
                    <mxGeometry x="130" y="690" width="60" height="30" as="geometry"/>
                </mxCell>
                <mxCell id="42" style="edgeStyle=none;html=1;entryX=0.5;entryY=0;entryDx=0;entryDy=0;startArrow=none;strokeColor=#000000;" parent="1" source="43" edge="1">
                    <mxGeometry relative="1" as="geometry">
                        <Array as="points">
                            <mxPoint x="160" y="420"/>
                        </Array>
                        <mxPoint x="160" y="485" as="targetPoint"/>
                    </mxGeometry>
                </mxCell>
                <mxCell id="41" value="&lt;span style=&quot;color: rgb(255 , 255 , 255)&quot;&gt;&lt;font style=&quot;font-size: 14px&quot;&gt;Qui est l'imposteur?&lt;/font&gt;&lt;/span&gt;" style="rhombus;whiteSpace=wrap;html=1;fillColor=#f0a30a;fontColor=#000000;strokeColor=#BD7000;" parent="1" vertex="1">
                    <mxGeometry x="320" y="380" width="160" height="80" as="geometry"/>
                </mxCell>
                <mxCell id="43" value="&lt;font style=&quot;font-size: 14px&quot; color=&quot;#000000&quot;&gt;Calciago&lt;/font&gt;" style="text;html=1;align=center;verticalAlign=middle;resizable=0;points=[];autosize=1;strokeColor=none;fillColor=none;" parent="1" vertex="1">
                    <mxGeometry x="245" y="410" width="70" height="20" as="geometry"/>
                </mxCell>
                <mxCell id="44" value="" style="edgeStyle=none;html=1;endArrow=none;strokeColor=#000000;" parent="1" source="41" target="43" edge="1">
                    <mxGeometry relative="1" as="geometry">
                        <mxPoint x="320" y="420" as="sourcePoint"/>
                        <mxPoint x="-89.99999999999977" y="485" as="targetPoint"/>
                        <Array as="points"/>
                    </mxGeometry>
                </mxCell>
                <mxCell id="45" value="&lt;font style=&quot;font-size: 14px&quot; color=&quot;#000000&quot;&gt;Appasilarco&lt;/font&gt;" style="text;html=1;align=center;verticalAlign=middle;resizable=0;points=[];autosize=1;strokeColor=none;fillColor=none;" parent="1" vertex="1">
                    <mxGeometry x="355" y="530" width="90" height="20" as="geometry"/>
                </mxCell>
                <mxCell id="46" value="" style="endArrow=none;html=1;exitX=0.5;exitY=1;exitDx=0;exitDy=0;entryX=0.5;entryY=0;entryDx=0;entryDy=0;strokeColor=#000000;" parent="1" target="45" edge="1">
                    <mxGeometry width="50" height="50" relative="1" as="geometry">
                        <mxPoint x="400" y="460" as="sourcePoint"/>
                        <mxPoint x="400" y="620" as="targetPoint"/>
                    </mxGeometry>
                </mxCell>
                <mxCell id="47" value="&lt;font style=&quot;font-size: 14px&quot; color=&quot;#000000&quot;&gt;Fiangaso&lt;/font&gt;" style="text;html=1;align=center;verticalAlign=middle;resizable=0;points=[];autosize=1;strokeColor=none;fillColor=none;" parent="1" vertex="1">
                    <mxGeometry x="505" y="410" width="70" height="20" as="geometry"/>
                </mxCell>
                <mxCell id="48" value="" style="endArrow=none;html=1;exitX=1;exitY=0.5;exitDx=0;exitDy=0;strokeColor=#000000;" parent="1" edge="1">
                    <mxGeometry width="50" height="50" relative="1" as="geometry">
                        <mxPoint x="480" y="420" as="sourcePoint"/>
                        <mxPoint x="510" y="420" as="targetPoint"/>
                        <Array as="points"/>
                    </mxGeometry>
                </mxCell>
                <mxCell id="52" style="edgeStyle=none;html=1;fontColor=#E6E6E6;startArrow=none;" parent="1" source="53" target="51" edge="1">
                    <mxGeometry relative="1" as="geometry"/>
                </mxCell>
                <mxCell id="91" style="edgeStyle=none;html=1;fontColor=#FFFFFF;strokeColor=#000000;entryX=0.5;entryY=1;entryDx=0;entryDy=0;startArrow=none;" parent="1" source="92" target="68" edge="1">
                    <mxGeometry relative="1" as="geometry">
                        <mxPoint x="809.9999999999995" y="975" as="targetPoint"/>
                        <Array as="points">
                            <mxPoint x="810" y="975"/>
                        </Array>
                    </mxGeometry>
                </mxCell>
                <mxCell id="49" value="&lt;font style=&quot;font-size: 14px&quot; color=&quot;#ffffff&quot;&gt;&lt;br&gt;Avez vous le code des caméras?&lt;/font&gt;" style="rhombus;whiteSpace=wrap;html=1;fillColor=#f0a30a;fontColor=#000000;strokeColor=#BD7000;" parent="1" vertex="1">
                    <mxGeometry x="300" y="910" width="200" height="130" as="geometry"/>
                </mxCell>
                <mxCell id="51" value="&lt;font style=&quot;font-size: 14px&quot;&gt;Les caméras montrent qu' Appasilarco est allé dans la chambre du camarade mort en colère et en panique. &lt;br&gt;Il se fait exécuter et votre camarade fut vengé.&lt;/font&gt;" style="rounded=1;whiteSpace=wrap;html=1;fontColor=#ffffff;fillColor=#60a917;strokeColor=#2D7600;" parent="1" vertex="1">
                    <mxGeometry x="307.5" y="1100" width="185" height="140" as="geometry"/>
                </mxCell>
                <mxCell id="87" value="" style="edgeStyle=none;html=1;strokeColor=#000000;" parent="1" source="53" target="51" edge="1">
                    <mxGeometry relative="1" as="geometry"/>
                </mxCell>
                <mxCell id="53" value="&lt;font style=&quot;font-size: 14px&quot; color=&quot;#000000&quot;&gt;oui&lt;/font&gt;" style="text;html=1;align=center;verticalAlign=middle;resizable=0;points=[];autosize=1;strokeColor=none;fillColor=none;fontColor=#E6E6E6;" parent="1" vertex="1">
                    <mxGeometry x="385" y="1060" width="30" height="20" as="geometry"/>
                </mxCell>
                <mxCell id="54" value="" style="edgeStyle=none;html=1;fontColor=#E6E6E6;endArrow=none;strokeColor=#000000;" parent="1" source="49" target="53" edge="1">
                    <mxGeometry relative="1" as="geometry">
                        <mxPoint x="397.5" y="1030" as="sourcePoint"/>
                        <mxPoint x="397.5" y="1120" as="targetPoint"/>
                    </mxGeometry>
                </mxCell>
                <mxCell id="62" style="edgeStyle=none;html=1;entryX=0.5;entryY=0;entryDx=0;entryDy=0;fontColor=#E0E0E0;startArrow=none;strokeColor=#000000;" parent="1" source="63" target="61" edge="1">
                    <mxGeometry relative="1" as="geometry"/>
                </mxCell>
                <mxCell id="69" style="edgeStyle=none;html=1;entryX=0;entryY=0.5;entryDx=0;entryDy=0;fontColor=#F0F0F0;startArrow=none;strokeColor=#000000;" parent="1" source="70" target="68" edge="1">
                    <mxGeometry relative="1" as="geometry"/>
                </mxCell>
                <mxCell id="57" value="&lt;font style=&quot;font-size: 14px&quot; color=&quot;#ffffff&quot;&gt;L'accuser?&lt;/font&gt;" style="rhombus;whiteSpace=wrap;html=1;fontColor=#000000;fillColor=#f0a30a;strokeColor=#BD7000;" parent="1" vertex="1">
                    <mxGeometry x="517.5" y="670" width="145" height="80" as="geometry"/>
                </mxCell>
                <mxCell id="67" style="edgeStyle=none;html=1;entryX=0.5;entryY=0;entryDx=0;entryDy=0;fontColor=#F0F0F0;strokeColor=#000000;" parent="1" source="61" target="66" edge="1">
                    <mxGeometry relative="1" as="geometry"/>
                </mxCell>
                <mxCell id="74" style="edgeStyle=none;html=1;entryX=0.5;entryY=1;entryDx=0;entryDy=0;fontColor=#F0F0F0;startArrow=none;strokeColor=#000000;" parent="1" source="75" target="68" edge="1">
                    <mxGeometry relative="1" as="geometry">
                        <mxPoint x="750.0000000000002" y="865" as="targetPoint"/>
                        <Array as="points">
                            <mxPoint x="810" y="885"/>
                        </Array>
                    </mxGeometry>
                </mxCell>
                <mxCell id="61" value="&lt;font style=&quot;font-size: 14px&quot; color=&quot;#ffffff&quot;&gt;Avez vous le code des caméras?&lt;/font&gt;" style="rhombus;whiteSpace=wrap;html=1;fontColor=#000000;fillColor=#f0a30a;strokeColor=#BD7000;" parent="1" vertex="1">
                    <mxGeometry x="490" y="810" width="200" height="150" as="geometry"/>
                </mxCell>
                <mxCell id="63" value="&lt;font color=&quot;#000000&quot; style=&quot;font-size: 14px&quot;&gt;oui&lt;/font&gt;" style="text;html=1;align=center;verticalAlign=middle;resizable=0;points=[];autosize=1;strokeColor=none;fillColor=none;fontColor=#F0F0F0;" parent="1" vertex="1">
                    <mxGeometry x="575" y="770" width="30" height="20" as="geometry"/>
                </mxCell>
                <mxCell id="64" value="" style="edgeStyle=none;html=1;entryX=0.5;entryY=0;entryDx=0;entryDy=0;fontColor=#E0E0E0;endArrow=none;strokeColor=#000000;" parent="1" source="57" target="63" edge="1">
                    <mxGeometry relative="1" as="geometry">
                        <mxPoint x="590.0000000000002" y="750" as="sourcePoint"/>
                        <mxPoint x="590.0000000000002" y="810" as="targetPoint"/>
                    </mxGeometry>
                </mxCell>
                <mxCell id="66" value="&lt;font style=&quot;font-size: 14px&quot;&gt;Les caméras montrent qu'Appasilarco est rentré chez Fiangaso avec l'arme. Il fut exécuté.&lt;/font&gt;" style="rounded=1;whiteSpace=wrap;html=1;fontColor=#ffffff;fillColor=#60a917;strokeColor=#2D7600;" parent="1" vertex="1">
                    <mxGeometry x="510" y="1005" width="160" height="130" as="geometry"/>
                </mxCell>
                <mxCell id="90" style="edgeStyle=none;html=1;strokeColor=#000000;entryX=1;entryY=0.5;entryDx=0;entryDy=0;" parent="1" source="68" target="2" edge="1">
                    <mxGeometry relative="1" as="geometry">
                        <mxPoint x="810" y="230" as="targetPoint"/>
                        <Array as="points">
                            <mxPoint x="810" y="200"/>
                        </Array>
                    </mxGeometry>
                </mxCell>
                <mxCell id="68" value="&lt;font style=&quot;font-size: 14px&quot;&gt;Les soupsons retournent contre vous. Vous êtes éxecuté&lt;/font&gt;" style="rounded=1;whiteSpace=wrap;html=1;fontColor=#ffffff;fillColor=#a20025;strokeColor=#6F0000;" parent="1" vertex="1">
                    <mxGeometry x="750" y="660" width="120" height="100" as="geometry"/>
                </mxCell>
                <mxCell id="70" value="&lt;font style=&quot;font-size: 14px&quot; color=&quot;#000000&quot;&gt;non&lt;/font&gt;" style="text;html=1;align=center;verticalAlign=middle;resizable=0;points=[];autosize=1;strokeColor=none;fillColor=none;fontColor=#F0F0F0;" parent="1" vertex="1">
                    <mxGeometry x="680" y="700" width="40" height="20" as="geometry"/>
                </mxCell>
                <mxCell id="71" value="" style="edgeStyle=none;html=1;entryX=0;entryY=0.5;entryDx=0;entryDy=0;fontColor=#F0F0F0;endArrow=none;strokeColor=#000000;" parent="1" source="57" target="70" edge="1">
                    <mxGeometry relative="1" as="geometry">
                        <mxPoint x="662.5000000000002" y="710" as="sourcePoint"/>
                        <mxPoint x="720.0000000000002" y="710" as="targetPoint"/>
                    </mxGeometry>
                </mxCell>
                <mxCell id="75" value="&lt;font color=&quot;#000000&quot; style=&quot;font-size: 14px&quot;&gt;non&lt;/font&gt;" style="text;html=1;align=center;verticalAlign=middle;resizable=0;points=[];autosize=1;strokeColor=none;fillColor=none;fontColor=#F0F0F0;" parent="1" vertex="1">
                    <mxGeometry x="710" y="875" width="40" height="20" as="geometry"/>
                </mxCell>
                <mxCell id="81" style="edgeStyle=none;html=1;entryX=0;entryY=0.5;entryDx=0;entryDy=0;fontColor=#F0F0F0;strokeColor=#000000;exitX=0.5;exitY=0;exitDx=0;exitDy=0;" parent="1" source="79" target="2" edge="1">
                    <mxGeometry relative="1" as="geometry">
                        <Array as="points">
                            <mxPoint x="-150" y="200"/>
                            <mxPoint x="140" y="200"/>
                        </Array>
                    </mxGeometry>
                </mxCell>
                <mxCell id="79" value="&lt;font style=&quot;font-size: 14px&quot;&gt;Il vous accuse en retour et les &lt;br&gt;membres décident de vous tuer tout les deux&lt;/font&gt;" style="rounded=1;whiteSpace=wrap;html=1;fontColor=#ffffff;fillColor=#a20025;strokeColor=#6F0000;" parent="1" vertex="1">
                    <mxGeometry x="-230" y="410" width="160" height="100" as="geometry"/>
                </mxCell>
                <mxCell id="82" value="&lt;font style=&quot;font-size: 14px&quot; color=&quot;#000000&quot;&gt;ne rien&lt;br&gt;&amp;nbsp;dire&lt;/font&gt;" style="text;html=1;align=center;verticalAlign=middle;resizable=0;points=[];autosize=1;strokeColor=none;fillColor=none;fontColor=#F0F0F0;" parent="1" vertex="1">
                    <mxGeometry x="-100" y="541.25" width="60" height="40" as="geometry"/>
                </mxCell>
                <mxCell id="83" value="" style="edgeStyle=none;html=1;fontColor=#F0F0F0;endArrow=none;strokeColor=#000000;exitX=0;exitY=0.5;exitDx=0;exitDy=0;entryX=0.998;entryY=0.495;entryDx=0;entryDy=0;entryPerimeter=0;" parent="1" source="85" target="82" edge="1">
                    <mxGeometry relative="1" as="geometry">
                        <mxPoint x="-40" y="566.3931469792606" as="sourcePoint"/>
                        <mxPoint x="-40" y="570" as="targetPoint"/>
                    </mxGeometry>
                </mxCell>
                <mxCell id="84" value="&lt;font color=&quot;#000000&quot; style=&quot;font-size: 14px&quot;&gt;Genre: Policier&lt;br&gt;Inspiration: Jeu Among Us&lt;br&gt;Nom: La Vendetta&lt;br&gt;&lt;br&gt;Interface: Gris foncé et noir&lt;br&gt;Boutons: Jaune&lt;br&gt;Survol: Orangé&lt;br&gt;Texte: noir&lt;/font&gt;" style="text;html=1;align=left;verticalAlign=middle;resizable=0;points=[];autosize=1;strokeColor=none;fillColor=none;fontColor=#F0F0F0;" parent="1" vertex="1">
                    <mxGeometry x="10" y="35" width="180" height="130" as="geometry"/>
                </mxCell>
                <mxCell id="85" value="&lt;div&gt;&lt;span style=&quot;color: rgb(255 , 255 , 255) ; font-size: 14px&quot;&gt;Vous ne lui avez jamais&amp;nbsp;&lt;/span&gt;&lt;/div&gt;&lt;div&gt;&lt;span style=&quot;color: rgb(255 , 255 , 255) ; font-size: 14px&quot;&gt;fait confiance,&amp;nbsp;&lt;/span&gt;&lt;span style=&quot;color: rgb(255 , 255 , 255) ; font-size: 14px&quot;&gt;car il ne vous a&amp;nbsp;&lt;/span&gt;&lt;/div&gt;&lt;div&gt;&lt;span style=&quot;color: rgb(255 , 255 , 255) ; font-size: 14px&quot;&gt;jamais plu. Il dit qu'il était chez&lt;/span&gt;&lt;/div&gt;&lt;div&gt;&lt;span style=&quot;color: rgb(255 , 255 , 255) ; font-size: 14px&quot;&gt;&amp;nbsp;&lt;/span&gt;&lt;font color=&quot;#ffffff&quot;&gt;&lt;span style=&quot;font-size: 14px ; font-family: &amp;#34;noto sans&amp;#34; , &amp;#34;arial&amp;#34; , sans-serif&quot;&gt;Fiordisaggio,&amp;nbsp;&lt;/span&gt;&lt;span style=&quot;font-family: &amp;#34;noto sans&amp;#34; , &amp;#34;arial&amp;#34; , sans-serif ; font-size: 14px&quot;&gt;mais vous&amp;nbsp;&lt;/span&gt;&lt;/font&gt;&lt;/div&gt;&lt;div&gt;&lt;span style=&quot;font-size: 14px ; font-family: &amp;#34;noto sans&amp;#34; , &amp;#34;arial&amp;#34; , sans-serif&quot;&gt;&lt;font color=&quot;#ffffff&quot;&gt;ne le croyez pas.&lt;/font&gt;&lt;/span&gt;&lt;span style=&quot;font-size: 14px ; color: rgb(215 , 218 , 220) ; font-family: &amp;#34;noto sans&amp;#34; , &amp;#34;arial&amp;#34; , sans-serif&quot;&gt;&amp;nbsp;&lt;/span&gt;&lt;/div&gt;" style="rhombus;whiteSpace=wrap;html=1;align=center;fillColor=#f0a30a;fontColor=#000000;strokeColor=#BD7000;spacingLeft=20;spacingRight=20;" parent="1" vertex="1">
                    <mxGeometry x="10" y="470" width="300" height="182.5" as="geometry"/>
                </mxCell>
                <mxCell id="89" value="" style="endArrow=none;html=1;strokeColor=#000000;exitX=1;exitY=0.5;exitDx=0;exitDy=0;entryX=0;entryY=0.5;entryDx=0;entryDy=0;entryPerimeter=0;" parent="1" source="61" target="75" edge="1">
                    <mxGeometry width="50" height="50" relative="1" as="geometry">
                        <mxPoint x="650" y="900" as="sourcePoint"/>
                        <mxPoint x="700" y="850" as="targetPoint"/>
                    </mxGeometry>
                </mxCell>
                <mxCell id="92" value="&lt;font color=&quot;#000000&quot; style=&quot;font-size: 14px&quot;&gt;non&lt;/font&gt;" style="text;html=1;align=center;verticalAlign=middle;resizable=0;points=[];autosize=1;strokeColor=none;fillColor=none;fontColor=#F0F0F0;" parent="1" vertex="1">
                    <mxGeometry x="710" y="965" width="40" height="20" as="geometry"/>
                </mxCell>
                <mxCell id="93" value="" style="edgeStyle=none;html=1;fontColor=#FFFFFF;strokeColor=#000000;endArrow=none;" parent="1" source="49" target="92" edge="1">
                    <mxGeometry relative="1" as="geometry">
                        <mxPoint x="810" y="760" as="targetPoint"/>
                        <mxPoint x="497.5" y="975" as="sourcePoint"/>
                        <Array as="points"/>
                    </mxGeometry>
                </mxCell>
            </root>
        </mxGraphModel>
    </diagram>
</mxfile>